# xmcd CD database file
#
# Track frame offsets:
#	150
#	27446
#	49934
#	75978
#	99117
#	114296
#	138779
#	158844
#
# Disc length: 3058 seconds
#
# Revision: 0
# Processed by: cddbd v1.5.2PL0 Copyright (c) Steve Scherf et al.
# Submitted via: CDex 1.70beta2
#
DISCID=510bf008
DTITLE=Koh-Tao - Tayu Tayu
DYEAR=1900
DGENRE=New Age
TTITLE0=Rainbow Island
TTITLE1=Shine Dance
TTITLE2=Spiral
TTITLE3=Moon In The Lake
TTITLE4=Bhang Bhang
TTITLE5=Amenbo
TTITLE6=Kazekiriuma
TTITLE7=Tayu Tayu
EXTD=
EXTT0=
EXTT1=
EXTT2=
EXTT3=
EXTT4=
EXTT5=
EXTT6=
EXTT7=
PLAYORDER=
